<?xml version="1.0" standalone="no"?>
<!DOCTYPE svg PUBLIC "-//W3C//DTD SVG 20010904//EN"
 "http://www.w3.org/TR/2001/REC-SVG-20010904/DTD/svg10.dtd">
<svg version="1.0" xmlns="http://www.w3.org/2000/svg"
 width="181.000000pt" height="78.000000pt" viewBox="0 0 181.000000 78.000000"
 preserveAspectRatio="xMidYMid meet">

<g transform="translate(0.000000,78.000000) scale(0.100000,-0.100000)"
fill="#000000" stroke="none">
<path d="M333 714 c-3 -8 1 -22 9 -30 17 -18 12 -64 -7 -64 -7 0 -49 -18 -94
-41 -86 -43 -209 -148 -197 -168 4 -6 27 -11 52 -11 l45 0 -2 -125 c0 -69 -5
-125 -10 -125 -5 0 -9 -9 -9 -20 0 -11 5 -20 10 -20 6 0 10 -11 10 -24 0 -21
-5 -25 -37 -29 -21 -2 108 -4 287 -4 179 0 308 2 288 4 -33 4 -38 8 -38 29 0
13 5 24 10 24 13 0 13 37 1 42 -6 2 -10 46 -11 98 -2 164 -6 150 45 150 37 0
45 3 45 19 0 38 -158 155 -250 186 -55 18 -74 53 -45 86 17 18 13 39 -8 39 -6
0 -21 -12 -33 -27 -21 -27 -24 -27 -40 -11 -10 10 -14 21 -10 25 4 4 15 -1 23
-12 14 -17 15 -18 9 -2 -3 10 -6 21 -6 23 0 12 -31 2 -37 -12z m107 -3 c0 -11
-29 -35 -35 -29 -10 9 7 38 21 38 8 0 14 -4 14 -9z m-25 -71 c-3 -5 -17 -10
-31 -10 -13 0 -24 5 -24 10 0 6 14 10 31 10 17 0 28 -4 24 -10z m75 -50 c56
-22 154 -85 183 -118 18 -19 17 -20 -25 -20 -23 -1 -48 4 -55 10 -8 7 -13 7
-13 0 0 -5 -17 -13 -37 -17 -28 -5 -40 -3 -49 10 -9 12 -13 13 -16 3 -6 -18
-168 -19 -175 -1 -4 10 -8 9 -20 -2 -17 -17 -71 -14 -83 5 -5 8 -10 9 -14 1
-8 -12 -96 -11 -96 1 0 14 132 101 188 124 71 29 144 31 212 4z m-232 -160
c34 0 62 -3 62 -7 0 -5 -59 -9 -130 -10 -72 -1 -130 2 -130 6 0 17 16 21 74
16 34 -2 89 -4 124 -5z m352 0 c19 -12 20 -12 -67 -15 -40 -2 -75 1 -78 5 -3
5 19 9 50 9 31 -1 59 2 62 5 9 8 15 7 33 -4z m107 -6 c2 -6 -12 -11 -33 -12
-40 -2 -57 5 -49 18 8 13 78 7 82 -6z m-337 -4 c0 -5 -9 -10 -20 -10 -11 0
-20 5 -20 10 0 6 9 10 20 10 11 0 20 -4 20 -10z m65 0 c4 -6 -5 -10 -19 -10
-14 0 -26 5 -26 10 0 6 9 10 19 10 11 0 23 -4 26 -10z m-157 -24 c-70 -50 -71
-50 -63 -28 5 18 3 21 -10 16 -14 -6 -16 -18 -13 -72 2 -47 -1 -66 -10 -70
-10 -3 -12 14 -10 75 l3 78 37 0 c20 1 40 4 44 8 4 3 11 4 16 1 5 -3 8 -7 6
-8z m302 -57 c0 -60 -1 -61 -18 -46 -10 10 -25 17 -33 17 -17 0 -39 -19 -39
-34 0 -5 6 -2 13 8 8 11 21 16 33 13 17 -4 17 -5 -2 -6 -12 0 -25 -8 -28 -17
-3 -8 -10 -13 -15 -9 -5 3 -12 1 -16 -5 -3 -5 -19 -10 -35 -10 -27 0 -28 2
-23 35 4 27 0 40 -21 65 -14 18 -26 35 -26 39 0 5 47 9 105 10 l105 2 0 -62z
m-411 -129 c4 0 16 9 26 20 17 19 18 19 42 -26 14 -25 22 -48 20 -51 -8 -7
-117 17 -117 26 0 4 3 11 6 14 4 3 7 48 7 99 l1 93 3 -87 c2 -49 7 -88 12 -88z
m165 168 c-5 -7 -2 -9 9 -5 10 4 24 -5 41 -28 32 -42 32 -56 2 -92 -20 -24
-32 -28 -85 -30 -49 -2 -63 1 -68 14 -4 9 1 19 10 25 20 10 22 40 6 70 -10 18
-8 25 11 40 25 20 86 26 74 6z m273 -100 c-2 -24 -4 -7 -4 37 0 44 2 63 4 43
2 -21 2 -57 0 -80z m-400 25 c-3 -10 -5 -4 -5 12 0 17 2 24 5 18 2 -7 2 -21 0
-30z m33 -3 c0 -16 -4 -30 -10 -30 -5 0 -10 14 -10 30 0 17 5 30 10 30 6 0 10
-13 10 -30z m228 -102 c-3 -43 -3 -43 -45 -46 -36 -3 -43 0 -43 15 -1 17 -1
17 -11 1 -13 -23 -79 -25 -79 -3 0 9 8 19 18 22 9 4 23 13 30 20 16 16 46 17
72 3 13 -7 21 -7 25 0 6 9 -8 14 -27 11 -5 0 -8 4 -8 9 0 6 16 10 36 10 l35 0
-3 -42z m-188 -9 c0 -18 -2 -19 -15 -9 -15 12 -12 30 6 30 5 0 9 -10 9 -21z
m335 -9 c-3 -5 -10 -10 -16 -10 -5 0 -9 5 -9 10 0 6 7 10 16 10 8 0 12 -4 9
-10z m20 -50 c-8 -13 -515 -14 -515 -1 0 6 107 10 260 10 168 0 259 -3 255 -9z
m-55 -45 l0 -25 -205 0 c-192 0 -205 1 -205 18 0 10 3 22 7 25 3 4 96 7 205 7
l198 0 0 -25z m-423 -7 c-3 -8 -6 -5 -6 6 -1 11 2 17 5 13 3 -3 4 -12 1 -19z"/>
<path d="M175 489 c18 -5 33 -5 39 1 7 7 -4 10 -29 9 -40 -1 -40 -1 -10 -10z"/>
<path d="M255 490 c3 -5 19 -10 36 -10 16 0 29 5 29 10 0 6 -16 10 -36 10 -21
0 -33 -4 -29 -10z"/>
<path d="M460 490 c0 -12 57 -13 64 -2 3 5 -10 9 -29 10 -19 1 -35 -3 -35 -8z"/>
<path d="M564 492 c5 -8 66 -4 66 4 0 2 -16 4 -36 4 -19 0 -33 -4 -30 -8z"/>
<path d="M275 340 c-3 -5 -1 -10 4 -10 6 0 11 5 11 10 0 6 -2 10 -4 10 -3 0
-8 -4 -11 -10z"/>
<path d="M350 300 c-13 -8 -13 -10 2 -10 9 0 20 5 23 10 8 13 -5 13 -25 0z"/>
<path d="M888 429 c-3 -74 -6 -83 -31 -104 -51 -45 -18 -78 34 -36 20 16 26
17 39 6 8 -7 27 -17 43 -20 36 -10 37 17 0 49 -23 20 -27 31 -31 104 -4 77 -6
82 -27 82 -22 0 -23 -5 -27 -81z"/>
<path d="M1010 390 l0 -120 30 0 c30 0 30 1 30 55 0 42 3 55 15 55 8 0 15 9
15 20 0 11 -7 20 -15 20 -11 0 -15 12 -15 45 0 43 -1 45 -30 45 l-30 0 0 -120z"/>
<path d="M1120 495 c0 -11 12 -15 44 -15 25 0 48 -4 51 -10 4 -6 -13 -10 -45
-10 l-51 0 3 -42 3 -43 113 -1 c112 -2 112 -2 112 22 0 17 6 24 20 24 13 0 20
7 20 20 0 13 -7 20 -20 20 -15 0 -20 7 -20 25 0 21 -5 25 -30 25 -29 0 -30 -1
-30 -49 l0 -49 -46 -7 c-29 -4 -50 -3 -57 4 -8 8 2 11 36 11 50 0 47 -3 52 63
l2 27 -78 0 c-64 0 -79 -3 -79 -15z"/>
<path d="M1412 443 l3 -68 78 -2 77 -2 0 69 0 70 -30 0 c-20 0 -30 -5 -30 -15
0 -8 -9 -15 -20 -15 -11 0 -20 7 -20 15 0 10 -10 15 -30 15 l-31 0 3 -67z m96
-15 c-7 -19 -38 -22 -38 -4 0 10 9 16 21 16 12 0 19 -5 17 -12z"/>
<path d="M1580 440 l0 -70 30 0 c25 0 30 4 30 25 0 16 6 25 15 25 8 0 15 9 15
20 0 11 -7 20 -15 20 -9 0 -15 9 -15 25 0 21 -5 25 -30 25 l-30 0 0 -70z"/>
<path d="M1142 338 c-15 -15 -15 -51 0 -66 16 -16 190 -16 206 0 7 7 12 21 12
33 0 37 -19 45 -115 45 -57 0 -95 -4 -103 -12z m153 -28 c4 -6 -15 -10 -49
-10 -31 0 -56 5 -56 10 0 6 22 10 49 10 28 0 53 -4 56 -10z"/>
<path d="M1422 338 c-7 -7 -12 -21 -12 -33 0 -37 19 -45 111 -45 110 0 119 4
119 45 0 21 -6 35 -16 39 -29 11 -189 7 -202 -6z m163 -28 c4 -6 -17 -10 -55
-10 -38 0 -59 4 -55 10 3 6 28 10 55 10 27 0 52 -4 55 -10z"/>
</g>
</svg>
