<?xml version="1.0" encoding="UTF-8"?>
<svg xmlns="http://www.w3.org/2000/svg" xmlns:xlink="http://www.w3.org/1999/xlink" width="24px" height="26px" viewBox="0 0 24 26" version="1.1">
<g id="surface1">
<path style=" stroke:none;fill-rule:nonzero;fill:rgb(99.607843%,99.607843%,99.607843%);fill-opacity:1;" d="M 0 0 C 7.921875 0 15.839844 0 24 0 C 24 8.578125 24 17.160156 24 26 C 16.078125 26 8.160156 26 0 26 C 0 17.421875 0 8.839844 0 0 Z M 0 0 "/>
<path style=" stroke:none;fill-rule:nonzero;fill:rgb(99.215686%,99.215686%,99.215686%);fill-opacity:1;" d="M 0 0 C 7.921875 0 15.839844 0 24 0 C 24 8.578125 24 17.160156 24 26 C 16.078125 26 8.160156 26 0 26 C 0 17.421875 0 8.839844 0 0 Z M 2.878906 1.15625 C 2.589844 1.5625 2.636719 2.042969 2.640625 2.535156 C 2.640625 2.628906 2.640625 2.71875 2.636719 2.816406 C 2.636719 3.128906 2.636719 3.441406 2.640625 3.753906 C 2.640625 3.976562 2.636719 4.199219 2.636719 4.421875 C 2.636719 5.03125 2.636719 5.636719 2.636719 6.246094 C 2.636719 6.882812 2.636719 7.515625 2.636719 8.152344 C 2.636719 9.21875 2.636719 10.285156 2.640625 11.351562 C 2.640625 12.585938 2.640625 13.820312 2.636719 15.054688 C 2.636719 16.113281 2.636719 17.175781 2.636719 18.234375 C 2.636719 18.867188 2.636719 19.5 2.636719 20.132812 C 2.636719 20.726562 2.636719 21.320312 2.636719 21.917969 C 2.640625 22.136719 2.640625 22.351562 2.636719 22.570312 C 2.636719 22.871094 2.636719 23.167969 2.640625 23.464844 C 2.640625 23.550781 2.636719 23.640625 2.636719 23.730469 C 2.636719 24.328125 2.636719 24.328125 2.878906 24.84375 C 3.277344 25.175781 3.574219 25.234375 4.074219 25.234375 C 4.269531 25.238281 4.269531 25.238281 4.472656 25.238281 C 4.621094 25.238281 4.765625 25.238281 4.914062 25.234375 C 5.066406 25.238281 5.222656 25.238281 5.375 25.238281 C 5.796875 25.238281 6.214844 25.238281 6.632812 25.238281 C 7.074219 25.238281 7.511719 25.238281 7.953125 25.238281 C 8.6875 25.238281 9.425781 25.238281 10.164062 25.234375 C 11.015625 25.234375 11.867188 25.234375 12.71875 25.238281 C 13.449219 25.238281 14.183594 25.238281 14.914062 25.238281 C 15.351562 25.238281 15.789062 25.238281 16.226562 25.238281 C 16.636719 25.238281 17.046875 25.238281 17.457031 25.238281 C 17.609375 25.234375 17.757812 25.238281 17.910156 25.238281 C 18.117188 25.238281 18.320312 25.238281 18.527344 25.234375 C 18.640625 25.234375 18.757812 25.234375 18.875 25.234375 C 19.429688 25.160156 19.84375 24.90625 20.191406 24.441406 C 20.246094 24.371094 20.296875 24.304688 20.351562 24.234375 C 20.632812 23.796875 20.601562 23.351562 20.597656 22.84375 C 20.597656 22.714844 20.597656 22.714844 20.597656 22.582031 C 20.597656 22.300781 20.597656 22.015625 20.597656 21.734375 C 20.597656 21.539062 20.597656 21.339844 20.597656 21.144531 C 20.597656 20.628906 20.59375 20.109375 20.59375 19.59375 C 20.59375 19.066406 20.59375 18.539062 20.59375 18.011719 C 20.589844 16.976562 20.589844 15.941406 20.585938 14.90625 C 20.671875 14.871094 20.757812 14.839844 20.84375 14.804688 C 21.128906 14.703125 21.128906 14.703125 21.257812 14.464844 C 21.402344 13.988281 21.367188 13.503906 21.367188 13.007812 C 21.371094 12.84375 21.371094 12.84375 21.371094 12.675781 C 21.378906 11.878906 21.378906 11.878906 21.011719 11.207031 C 20.792969 11.136719 20.792969 11.136719 20.585938 11.09375 C 20.585938 10.984375 20.589844 10.875 20.589844 10.761719 C 20.597656 9.722656 20.605469 8.6875 20.609375 7.648438 C 20.609375 7.117188 20.613281 6.582031 20.617188 6.050781 C 20.625 5.535156 20.625 5.019531 20.628906 4.503906 C 20.628906 4.308594 20.628906 4.113281 20.632812 3.917969 C 20.636719 3.640625 20.636719 3.367188 20.636719 3.089844 C 20.636719 2.96875 20.636719 2.96875 20.640625 2.847656 C 20.632812 2.140625 20.363281 1.757812 19.953125 1.242188 C 19.515625 0.839844 19.101562 0.78125 18.539062 0.777344 C 18.339844 0.777344 18.339844 0.777344 18.136719 0.777344 C 17.992188 0.777344 17.84375 0.777344 17.699219 0.777344 C 17.542969 0.777344 17.390625 0.777344 17.234375 0.773438 C 16.816406 0.773438 16.394531 0.773438 15.976562 0.773438 C 15.625 0.773438 15.273438 0.773438 14.925781 0.773438 C 14.097656 0.773438 13.269531 0.773438 12.445312 0.773438 C 11.589844 0.773438 10.738281 0.773438 9.886719 0.769531 C 9.152344 0.765625 8.421875 0.765625 7.6875 0.765625 C 7.25 0.765625 6.8125 0.765625 6.378906 0.765625 C 5.964844 0.765625 5.554688 0.765625 5.144531 0.765625 C 4.992188 0.765625 4.84375 0.765625 4.691406 0.765625 C 4.484375 0.761719 4.277344 0.765625 4.074219 0.765625 C 3.957031 0.765625 3.84375 0.765625 3.722656 0.765625 C 3.363281 0.816406 3.167969 0.914062 2.878906 1.15625 Z M 2.878906 1.15625 "/>
<path style=" stroke:none;fill-rule:nonzero;fill:rgb(3.529412%,3.529412%,3.529412%);fill-opacity:1;" d="M 4.074219 0.765625 C 4.207031 0.765625 4.335938 0.761719 4.472656 0.761719 C 4.621094 0.761719 4.765625 0.761719 4.914062 0.765625 C 5.066406 0.761719 5.222656 0.761719 5.375 0.761719 C 5.796875 0.761719 6.214844 0.761719 6.632812 0.761719 C 7.074219 0.761719 7.511719 0.761719 7.953125 0.761719 C 8.6875 0.761719 9.425781 0.761719 10.164062 0.765625 C 11.015625 0.765625 11.867188 0.765625 12.71875 0.761719 C 13.449219 0.761719 14.183594 0.761719 14.914062 0.761719 C 15.351562 0.761719 15.789062 0.761719 16.226562 0.761719 C 16.636719 0.761719 17.046875 0.761719 17.457031 0.761719 C 17.609375 0.765625 17.757812 0.761719 17.910156 0.761719 C 18.117188 0.761719 18.320312 0.761719 18.527344 0.765625 C 18.699219 0.765625 18.699219 0.765625 18.875 0.765625 C 19.433594 0.839844 19.84375 1.09375 20.191406 1.566406 C 20.246094 1.636719 20.296875 1.707031 20.351562 1.777344 C 20.628906 2.183594 20.601562 2.550781 20.597656 3.039062 C 20.597656 3.125 20.597656 3.210938 20.597656 3.300781 C 20.597656 3.589844 20.597656 3.875 20.597656 4.164062 C 20.597656 4.363281 20.597656 4.5625 20.597656 4.761719 C 20.597656 5.285156 20.59375 5.8125 20.59375 6.335938 C 20.59375 6.871094 20.59375 7.40625 20.59375 7.941406 C 20.589844 8.992188 20.589844 10.042969 20.585938 11.09375 C 20.671875 11.128906 20.757812 11.160156 20.84375 11.195312 C 21.121094 11.324219 21.121094 11.324219 21.257812 11.535156 C 21.402344 12.011719 21.367188 12.496094 21.367188 12.992188 C 21.367188 13.101562 21.371094 13.210938 21.371094 13.324219 C 21.371094 14.363281 21.371094 14.363281 21.011719 14.792969 C 20.789062 14.863281 20.789062 14.863281 20.585938 14.90625 C 20.585938 15.070312 20.585938 15.070312 20.589844 15.234375 C 20.59375 16.257812 20.601562 17.28125 20.601562 18.304688 C 20.605469 18.832031 20.605469 19.359375 20.609375 19.882812 C 20.613281 20.390625 20.617188 20.898438 20.617188 21.410156 C 20.617188 21.601562 20.617188 21.796875 20.621094 21.988281 C 20.621094 22.261719 20.625 22.53125 20.621094 22.804688 C 20.625 22.882812 20.625 22.964844 20.625 23.046875 C 20.621094 23.738281 20.425781 24.179688 20.011719 24.699219 C 19.542969 25.136719 19.148438 25.21875 18.539062 25.222656 C 18.40625 25.222656 18.273438 25.222656 18.136719 25.222656 C 17.992188 25.222656 17.84375 25.222656 17.699219 25.222656 C 17.542969 25.222656 17.390625 25.222656 17.234375 25.226562 C 16.816406 25.226562 16.394531 25.226562 15.976562 25.226562 C 15.625 25.226562 15.273438 25.226562 14.925781 25.226562 C 14.097656 25.226562 13.269531 25.226562 12.445312 25.226562 C 11.589844 25.226562 10.738281 25.226562 9.886719 25.230469 C 9.152344 25.234375 8.421875 25.234375 7.6875 25.234375 C 7.25 25.234375 6.8125 25.234375 6.378906 25.234375 C 5.964844 25.234375 5.554688 25.234375 5.144531 25.234375 C 4.992188 25.234375 4.84375 25.234375 4.691406 25.234375 C 4.484375 25.238281 4.277344 25.234375 4.074219 25.234375 C 3.957031 25.234375 3.84375 25.234375 3.722656 25.234375 C 3.363281 25.183594 3.167969 25.085938 2.878906 24.84375 C 2.589844 24.4375 2.636719 23.957031 2.640625 23.464844 C 2.640625 23.324219 2.640625 23.324219 2.636719 23.183594 C 2.636719 22.871094 2.636719 22.558594 2.640625 22.246094 C 2.640625 22.023438 2.636719 21.800781 2.636719 21.578125 C 2.636719 20.96875 2.636719 20.363281 2.636719 19.753906 C 2.636719 19.117188 2.636719 18.484375 2.636719 17.847656 C 2.636719 16.78125 2.636719 15.714844 2.640625 14.648438 C 2.640625 13.414062 2.640625 12.179688 2.636719 10.945312 C 2.636719 9.886719 2.636719 8.824219 2.636719 7.765625 C 2.636719 7.132812 2.636719 6.5 2.636719 5.867188 C 2.636719 5.273438 2.636719 4.679688 2.636719 4.082031 C 2.640625 3.863281 2.640625 3.648438 2.636719 3.429688 C 2.636719 3.128906 2.636719 2.832031 2.640625 2.535156 C 2.640625 2.449219 2.636719 2.359375 2.636719 2.269531 C 2.644531 1.488281 2.644531 1.488281 2.878906 1.15625 C 3.277344 0.824219 3.574219 0.765625 4.074219 0.765625 Z M 4.90625 1.617188 C 4.90625 9.128906 4.90625 16.640625 4.90625 24.382812 C 7.238281 24.390625 9.566406 24.398438 11.964844 24.402344 C 12.703125 24.40625 13.4375 24.410156 14.195312 24.414062 C 14.855469 24.414062 14.855469 24.414062 15.515625 24.414062 C 15.808594 24.414062 16.101562 24.417969 16.394531 24.417969 C 16.839844 24.421875 17.285156 24.421875 17.730469 24.421875 C 17.863281 24.421875 17.992188 24.425781 18.128906 24.425781 C 18.246094 24.425781 18.367188 24.425781 18.492188 24.425781 C 18.59375 24.425781 18.699219 24.425781 18.804688 24.425781 C 19.152344 24.375 19.347656 24.257812 19.625 24.035156 C 19.882812 23.621094 19.867188 23.332031 19.863281 22.855469 C 19.863281 22.769531 19.863281 22.683594 19.863281 22.597656 C 19.863281 22.316406 19.863281 22.039062 19.859375 21.757812 C 19.859375 21.566406 19.859375 21.371094 19.859375 21.179688 C 19.859375 20.667969 19.855469 20.15625 19.855469 19.648438 C 19.851562 19.128906 19.851562 18.605469 19.851562 18.085938 C 19.847656 17.066406 19.84375 16.042969 19.839844 15.023438 C 19.777344 15.019531 19.714844 15.019531 19.652344 15.019531 C 19 15.007812 18.351562 14.992188 17.703125 14.980469 C 17.460938 14.972656 17.21875 14.96875 16.976562 14.964844 C 16.628906 14.957031 16.28125 14.949219 15.933594 14.941406 C 15.824219 14.941406 15.714844 14.9375 15.601562 14.9375 C 15.453125 14.933594 15.453125 14.933594 15.300781 14.929688 C 15.210938 14.929688 15.121094 14.925781 15.03125 14.925781 C 14.828125 14.90625 14.828125 14.90625 14.71875 14.792969 C 14.710938 14.527344 14.707031 14.265625 14.707031 14 C 14.707031 13.921875 14.707031 13.84375 14.707031 13.761719 C 14.707031 13.59375 14.707031 13.425781 14.707031 13.257812 C 14.707031 13 14.707031 12.742188 14.707031 12.488281 C 14.707031 12.324219 14.707031 12.160156 14.707031 12 C 14.707031 11.851562 14.707031 11.703125 14.707031 11.550781 C 14.71875 11.207031 14.71875 11.207031 14.828125 11.09375 C 14.984375 11.078125 15.140625 11.074219 15.300781 11.070312 C 15.398438 11.066406 15.5 11.066406 15.601562 11.0625 C 15.765625 11.058594 15.765625 11.058594 15.933594 11.058594 C 16.101562 11.054688 16.101562 11.054688 16.269531 11.050781 C 16.628906 11.042969 16.984375 11.035156 17.339844 11.027344 C 17.582031 11.023438 17.820312 11.019531 18.0625 11.011719 C 18.65625 11 19.246094 10.988281 19.839844 10.976562 C 19.851562 9.859375 19.863281 8.738281 19.867188 7.617188 C 19.871094 7.097656 19.875 6.578125 19.878906 6.058594 C 19.886719 5.554688 19.890625 5.054688 19.890625 4.550781 C 19.890625 4.359375 19.894531 4.167969 19.894531 3.976562 C 19.898438 3.707031 19.902344 3.441406 19.902344 3.171875 C 19.902344 3.09375 19.90625 3.015625 19.90625 2.933594 C 19.902344 2.488281 19.847656 2.320312 19.582031 1.976562 C 19.089844 1.542969 19.085938 1.617188 18.347656 1.617188 C 18.3125 4.25 18.277344 6.878906 18.238281 9.589844 C 17.542969 9.464844 17.371094 9.304688 16.878906 8.816406 C 16.644531 8.628906 16.644531 8.628906 16.371094 8.734375 C 16.042969 8.9375 15.765625 9.175781 15.472656 9.4375 C 15.253906 9.589844 15.253906 9.589844 14.71875 9.707031 C 14.683594 7.039062 14.648438 4.367188 14.613281 1.617188 C 11.410156 1.617188 8.207031 1.617188 4.90625 1.617188 Z M 4.90625 1.617188 "/>
<path style=" stroke:none;fill-rule:nonzero;fill:rgb(96.862745%,96.862745%,96.862745%);fill-opacity:1;" d="M 3.519531 1.617188 C 3.730469 1.617188 3.941406 1.617188 4.160156 1.617188 C 4.160156 9.128906 4.160156 16.640625 4.160156 24.382812 C 3.949219 24.382812 3.738281 24.382812 3.519531 24.382812 C 3.335938 24.183594 3.398438 23.929688 3.398438 23.664062 C 3.398438 23.574219 3.398438 23.488281 3.398438 23.398438 C 3.398438 23.304688 3.398438 23.214844 3.398438 23.121094 C 3.398438 22.808594 3.398438 22.496094 3.398438 22.1875 C 3.398438 21.964844 3.398438 21.742188 3.398438 21.519531 C 3.398438 20.917969 3.398438 20.3125 3.398438 19.707031 C 3.398438 19.078125 3.398438 18.445312 3.398438 17.816406 C 3.398438 16.757812 3.398438 15.695312 3.398438 14.636719 C 3.398438 13.410156 3.398438 12.183594 3.398438 10.957031 C 3.398438 9.90625 3.398438 8.851562 3.398438 7.800781 C 3.398438 7.171875 3.398438 6.542969 3.398438 5.914062 C 3.398438 5.324219 3.398438 4.734375 3.398438 4.140625 C 3.398438 3.925781 3.398438 3.707031 3.398438 3.488281 C 3.398438 3.191406 3.398438 2.898438 3.398438 2.601562 C 3.398438 2.515625 3.398438 2.425781 3.398438 2.335938 C 3.402344 1.746094 3.402344 1.746094 3.519531 1.617188 Z M 3.519531 1.617188 "/>
<path style=" stroke:none;fill-rule:nonzero;fill:rgb(99.215686%,99.215686%,99.215686%);fill-opacity:1;" d="M 15.359375 1.617188 C 16.097656 1.617188 16.839844 1.617188 17.601562 1.617188 C 17.601562 3.867188 17.601562 6.117188 17.601562 8.4375 C 17.171875 8.203125 17.171875 8.203125 16.972656 8.007812 C 16.75 7.828125 16.75 7.828125 16.445312 7.859375 C 16.007812 7.984375 16.007812 7.984375 15.359375 8.550781 C 15.359375 6.261719 15.359375 3.976562 15.359375 1.617188 Z M 15.359375 1.617188 "/>
<path style=" stroke:none;fill-rule:nonzero;fill:rgb(99.215686%,99.215686%,99.215686%);fill-opacity:1;" d="M 16.851562 11.785156 C 17.367188 11.785156 17.882812 11.78125 18.398438 11.78125 C 18.570312 11.78125 18.746094 11.777344 18.921875 11.777344 C 19.171875 11.777344 19.425781 11.777344 19.675781 11.773438 C 19.753906 11.773438 19.832031 11.773438 19.914062 11.773438 C 20.101562 11.773438 20.292969 11.78125 20.480469 11.785156 C 20.644531 11.964844 20.601562 12.140625 20.601562 12.390625 C 20.601562 12.535156 20.601562 12.535156 20.601562 12.6875 C 20.601562 12.789062 20.601562 12.894531 20.601562 13 C 20.601562 13.15625 20.601562 13.15625 20.601562 13.3125 C 20.601562 13.410156 20.601562 13.507812 20.601562 13.609375 C 20.601562 13.699219 20.601562 13.792969 20.601562 13.886719 C 20.585938 14.097656 20.585938 14.097656 20.480469 14.214844 C 20.210938 14.222656 19.945312 14.226562 19.675781 14.226562 C 19.554688 14.222656 19.554688 14.222656 19.433594 14.222656 C 19.175781 14.222656 18.917969 14.222656 18.660156 14.21875 C 18.484375 14.21875 18.3125 14.21875 18.136719 14.21875 C 17.710938 14.21875 17.28125 14.214844 16.851562 14.214844 C 16.851562 13.414062 16.851562 12.613281 16.851562 11.785156 Z M 16.851562 11.785156 "/>
<path style=" stroke:none;fill-rule:nonzero;fill:rgb(5.490196%,5.490196%,5.490196%);fill-opacity:1;" d="M 7.210938 6.441406 C 7.335938 6.441406 7.460938 6.441406 7.589844 6.4375 C 7.796875 6.441406 7.796875 6.441406 8.003906 6.441406 C 8.140625 6.441406 8.28125 6.441406 8.425781 6.441406 C 8.71875 6.4375 9.011719 6.441406 9.304688 6.441406 C 9.683594 6.441406 10.0625 6.441406 10.4375 6.441406 C 10.796875 6.4375 11.15625 6.441406 11.515625 6.441406 C 11.652344 6.441406 11.789062 6.441406 11.929688 6.4375 C 12.054688 6.441406 12.179688 6.441406 12.308594 6.441406 C 12.417969 6.441406 12.53125 6.441406 12.644531 6.441406 C 12.90625 6.472656 12.90625 6.472656 13.121094 6.703125 C 13.085938 6.894531 13.050781 7.082031 13.011719 7.28125 C 10.867188 7.28125 8.71875 7.28125 6.507812 7.28125 C 6.472656 7.089844 6.4375 6.898438 6.398438 6.703125 C 6.683594 6.394531 6.816406 6.441406 7.210938 6.441406 Z M 7.210938 6.441406 "/>
<path style=" stroke:none;fill-rule:nonzero;fill:rgb(3.921569%,3.921569%,3.921569%);fill-opacity:1;" d="M 7.210938 4.824219 C 7.335938 4.824219 7.460938 4.820312 7.589844 4.820312 C 7.796875 4.820312 7.796875 4.820312 8.003906 4.824219 C 8.140625 4.824219 8.28125 4.820312 8.425781 4.820312 C 8.71875 4.820312 9.011719 4.820312 9.304688 4.824219 C 9.683594 4.824219 10.0625 4.824219 10.4375 4.824219 C 10.796875 4.820312 11.15625 4.820312 11.515625 4.824219 C 11.652344 4.820312 11.789062 4.820312 11.929688 4.820312 C 12.054688 4.820312 12.179688 4.824219 12.308594 4.824219 C 12.417969 4.824219 12.53125 4.824219 12.644531 4.824219 C 12.90625 4.851562 12.90625 4.851562 13.121094 5.085938 C 13.0625 5.492188 13.0625 5.492188 12.90625 5.664062 C 12.707031 5.671875 12.507812 5.675781 12.308594 5.675781 C 12.179688 5.675781 12.050781 5.675781 11.917969 5.675781 C 11.78125 5.675781 11.640625 5.675781 11.496094 5.671875 C 11.351562 5.671875 11.210938 5.671875 11.066406 5.671875 C 10.6875 5.671875 10.308594 5.671875 9.933594 5.671875 C 9.546875 5.667969 9.160156 5.667969 8.777344 5.667969 C 8.019531 5.667969 7.261719 5.664062 6.507812 5.664062 C 6.441406 5.386719 6.441406 5.386719 6.398438 5.085938 C 6.683594 4.777344 6.816406 4.824219 7.210938 4.824219 Z M 7.210938 4.824219 "/>
<path style=" stroke:none;fill-rule:nonzero;fill:rgb(2.745098%,2.745098%,2.745098%);fill-opacity:1;" d="M 7.210938 3.207031 C 7.335938 3.203125 7.460938 3.203125 7.589844 3.203125 C 7.796875 3.203125 7.796875 3.203125 8.003906 3.203125 C 8.140625 3.203125 8.28125 3.203125 8.425781 3.203125 C 8.71875 3.203125 9.011719 3.203125 9.304688 3.207031 C 9.683594 3.207031 10.0625 3.207031 10.4375 3.203125 C 10.796875 3.203125 11.15625 3.203125 11.515625 3.203125 C 11.652344 3.203125 11.789062 3.203125 11.929688 3.203125 C 12.054688 3.203125 12.179688 3.203125 12.308594 3.207031 C 12.417969 3.207031 12.53125 3.207031 12.644531 3.207031 C 12.90625 3.234375 12.90625 3.234375 13.121094 3.464844 C 13.0625 3.875 13.0625 3.875 12.90625 4.042969 C 12.707031 4.054688 12.507812 4.058594 12.308594 4.058594 C 12.179688 4.058594 12.050781 4.058594 11.917969 4.058594 C 11.78125 4.058594 11.640625 4.054688 11.496094 4.054688 C 11.351562 4.054688 11.210938 4.054688 11.066406 4.054688 C 10.6875 4.054688 10.308594 4.054688 9.933594 4.050781 C 9.546875 4.050781 9.160156 4.050781 8.777344 4.050781 C 8.019531 4.050781 7.261719 4.046875 6.507812 4.042969 C 6.441406 3.769531 6.441406 3.769531 6.398438 3.464844 C 6.683594 3.160156 6.816406 3.207031 7.210938 3.207031 Z M 7.210938 3.207031 "/>
<path style=" stroke:none;fill-rule:nonzero;fill:rgb(99.215686%,99.215686%,99.215686%);fill-opacity:1;" d="M 15.359375 11.785156 C 15.605469 11.785156 15.851562 11.785156 16.105469 11.785156 C 16.105469 12.585938 16.105469 13.386719 16.105469 14.214844 C 15.859375 14.214844 15.613281 14.214844 15.359375 14.214844 C 15.359375 13.414062 15.359375 12.613281 15.359375 11.785156 Z M 15.359375 11.785156 "/>
<path style=" stroke:none;fill-rule:nonzero;fill:rgb(7.450981%,7.450981%,7.450981%);fill-opacity:1;" d="M 19.308594 12.59375 C 19.484375 12.628906 19.664062 12.667969 19.839844 12.710938 C 19.839844 12.902344 19.839844 13.09375 19.839844 13.289062 C 19.585938 13.359375 19.585938 13.359375 19.308594 13.40625 C 19.234375 13.328125 19.164062 13.25 19.09375 13.171875 C 19.152344 12.765625 19.152344 12.765625 19.308594 12.59375 Z M 19.308594 12.59375 "/>
</g>
</svg>
